<svg width="190" height="56" viewBox="0 0 190 56" fill="none" xmlns="http://www.w3.org/2000/svg">
<g clip-path="url(#clip0)">
<path d="M182.887 56H7.23132C3.58152 56 0.610718 53.0208 0.610718 49.3738V6.6164C0.610718 2.968 3.58152 0 7.23132 0H182.887C186.535 0 189.611 2.968 189.611 6.6164V49.3738C189.611 53.0208 186.535 56 182.887 56Z" fill="#A6A6A6"/>
<path d="M188.255 49.3753C188.255 52.3377 185.856 54.7373 182.888 54.7373H7.23129C4.26469 54.7373 1.85669 52.3377 1.85669 49.3753V6.61509C1.85669 3.65409 4.26469 1.24609 7.23129 1.24609H182.887C185.856 1.24609 188.254 3.65409 188.254 6.61509L188.255 49.3753Z" fill="white"/>
<path d="M42.7899 27.6977C42.7493 23.1855 46.4845 20.9903 46.6553 20.8881C44.5399 17.8039 41.2611 17.3825 40.1089 17.3489C37.3551 17.0591 34.6839 18.9967 33.2811 18.9967C31.8503 18.9967 29.6901 17.3769 27.3619 17.4245C24.3659 17.4707 21.5631 19.2053 20.0259 21.8989C16.8535 27.3911 19.2195 35.4621 22.2589 39.9015C23.7793 42.0757 25.5559 44.5033 27.8813 44.4179C30.1563 44.3241 31.0061 42.9675 33.7515 42.9675C36.4717 42.9675 37.2697 44.4179 39.6413 44.3633C42.0829 44.3241 43.6201 42.1793 45.0873 39.9855C46.8443 37.4935 47.5499 35.0393 47.5779 34.9133C47.5205 34.8937 42.8361 33.1059 42.7899 27.6977Z" fill="black"/>
<path d="M38.31 14.4285C39.5336 12.8983 40.3708 10.8165 40.1384 8.70386C38.3674 8.78226 36.1525 9.92886 34.8771 11.4255C33.7487 12.7443 32.7407 14.9059 33.0011 16.9387C34.9905 17.0871 37.0331 15.9349 38.31 14.4285Z" fill="black"/>
<path d="M75.7137 44.1056H72.5343L70.7927 38.633H64.7391L63.0801 44.1056H59.9847L65.9823 25.4744H69.6867L75.7137 44.1056ZM70.2677 36.337L68.6927 31.472C68.5261 30.975 68.2139 29.8046 67.7533 27.9622H67.6973C67.5139 28.7546 67.2185 29.925 66.8125 31.472L65.2655 36.337H70.2677Z" fill="black"/>
<path d="M91.1376 37.2233C91.1376 39.5081 90.5202 41.3141 89.2854 42.6399C88.1794 43.8201 86.806 44.4095 85.1666 44.4095C83.397 44.4095 82.1258 43.7739 81.3516 42.5027H81.2956V49.5797H78.3108V35.0939C78.3108 33.6575 78.273 32.1833 78.2002 30.6713H80.8252L80.9918 32.8007H81.0478C82.0432 31.1963 83.5538 30.3955 85.581 30.3955C87.1658 30.3955 88.4888 31.0213 89.5472 32.2743C90.6084 33.5287 91.1376 35.1779 91.1376 37.2233ZM88.0968 37.3325C88.0968 36.0249 87.8028 34.9469 87.212 34.0985C86.5666 33.2137 85.7 32.7713 84.6136 32.7713C83.8772 32.7713 83.208 33.0177 82.6102 33.5035C82.011 33.9935 81.619 34.6333 81.4356 35.4257C81.3432 35.7953 81.297 36.0977 81.297 36.3357V38.5757C81.297 39.5529 81.5966 40.3775 82.1958 41.0509C82.795 41.7243 83.5734 42.0603 84.531 42.0603C85.6552 42.0603 86.5302 41.6263 87.156 40.7611C87.7832 39.8945 88.0968 38.7521 88.0968 37.3325Z" fill="black"/>
<path d="M106.589 37.2233C106.589 39.5081 105.972 41.3141 104.736 42.6399C103.631 43.8201 102.258 44.4095 100.618 44.4095C98.8487 44.4095 97.5775 43.7739 96.8047 42.5027H96.7487V49.5797H93.7639V35.0939C93.7639 33.6575 93.7261 32.1833 93.6533 30.6713H96.2783L96.4449 32.8007H96.5009C97.4949 31.1963 99.0055 30.3955 101.034 30.3955C102.618 30.3955 103.941 31.0213 105.002 32.2743C106.059 33.5287 106.589 35.1779 106.589 37.2233ZM103.549 37.3325C103.549 36.0249 103.253 34.9469 102.662 34.0985C102.017 33.2137 101.153 32.7713 100.065 32.7713C99.3275 32.7713 98.6597 33.0177 98.0605 33.5035C97.4613 33.9935 97.0707 34.6333 96.8873 35.4257C96.7963 35.7953 96.7487 36.0977 96.7487 36.3357V38.5757C96.7487 39.5529 97.0483 40.3775 97.6447 41.0509C98.2439 41.7229 99.0223 42.0603 99.9827 42.0603C101.107 42.0603 101.982 41.6263 102.608 40.7611C103.235 39.8945 103.549 38.7521 103.549 37.3325Z" fill="black"/>
<path d="M123.865 38.8808C123.865 40.4656 123.315 41.755 122.21 42.7504C120.997 43.8382 119.307 44.3814 117.135 44.3814C115.131 44.3814 113.523 43.995 112.307 43.2208L112.998 40.733C114.309 41.5254 115.747 41.923 117.313 41.923C118.437 41.923 119.312 41.6682 119.941 41.1614C120.567 40.6546 120.879 39.9742 120.879 39.1258C120.879 38.3698 120.621 37.7328 120.105 37.2162C119.591 36.6996 118.733 36.2194 117.534 35.7756C114.272 34.559 112.643 32.7768 112.643 30.4332C112.643 28.9016 113.214 27.6458 114.358 26.6686C115.497 25.69 117.018 25.2014 118.919 25.2014C120.614 25.2014 122.023 25.4968 123.147 26.0862L122.401 28.5194C121.351 27.9482 120.164 27.6626 118.835 27.6626C117.785 27.6626 116.965 27.9216 116.377 28.4368C115.88 28.8974 115.63 29.4588 115.63 30.1238C115.63 30.8602 115.915 31.4692 116.486 31.948C116.983 32.3904 117.886 32.8692 119.196 33.3858C120.799 34.0312 121.977 34.7858 122.734 35.651C123.489 36.5134 123.865 37.5928 123.865 38.8808Z" fill="black"/>
<path d="M133.734 32.9111H130.444V39.4337C130.444 41.0927 131.024 41.9215 132.186 41.9215C132.719 41.9215 133.161 41.8753 133.511 41.7829L133.594 44.0495C133.006 44.2693 132.232 44.3799 131.273 44.3799C130.094 44.3799 129.173 44.0201 128.508 43.3019C127.846 42.5823 127.512 41.3755 127.512 39.6801V32.9083H125.552V30.6683H127.512V28.2085L130.444 27.3237V30.6683H133.734V32.9111Z" fill="black"/>
<path d="M148.578 37.2777C148.578 39.3427 147.987 41.0381 146.809 42.3639C145.572 43.7289 143.932 44.4093 141.886 44.4093C139.915 44.4093 138.346 43.7555 137.175 42.4479C136.005 41.1403 135.42 39.4897 135.42 37.5003C135.42 35.4185 136.022 33.7133 137.23 32.3875C138.435 31.0603 140.062 30.3967 142.107 30.3967C144.079 30.3967 145.665 31.0505 146.862 32.3595C148.007 33.6293 148.578 35.2687 148.578 37.2777ZM145.481 37.3743C145.481 36.1353 145.217 35.0727 144.681 34.1865C144.055 33.1141 143.16 32.5793 142.001 32.5793C140.801 32.5793 139.89 33.1155 139.264 34.1865C138.728 35.0741 138.463 36.1535 138.463 37.4303C138.463 38.6693 138.728 39.7319 139.264 40.6167C139.909 41.6891 140.811 42.2239 141.974 42.2239C143.114 42.2239 144.009 41.6779 144.654 40.5887C145.204 39.6857 145.481 38.6119 145.481 37.3743Z" fill="black"/>
<path d="M158.28 33.2963C157.985 33.2417 157.67 33.2137 157.339 33.2137C156.289 33.2137 155.477 33.6099 154.906 34.4037C154.409 35.1037 154.16 35.9885 154.16 37.0567V44.1057H151.177L151.205 34.9021C151.205 33.3537 151.167 31.9439 151.093 30.6727H153.692L153.802 33.2431H153.884C154.199 32.3597 154.696 31.6485 155.377 31.1151C156.042 30.6349 156.76 30.3955 157.534 30.3955C157.81 30.3955 158.059 30.4151 158.28 30.4501V33.2963Z" fill="black"/>
<path d="M171.629 36.7527C171.629 37.2875 171.594 37.7383 171.52 38.1065H162.566C162.601 39.4337 163.033 40.4487 163.865 41.1487C164.619 41.7745 165.595 42.0881 166.794 42.0881C168.119 42.0881 169.329 41.8767 170.417 41.4525L170.884 43.5245C169.613 44.0789 168.112 44.3547 166.381 44.3547C164.297 44.3547 162.662 43.7415 161.472 42.5165C160.285 41.2915 159.69 39.6465 159.69 37.5829C159.69 35.5571 160.243 33.8701 161.35 32.5247C162.51 31.0883 164.076 30.3701 166.047 30.3701C167.984 30.3701 169.449 31.0883 170.445 32.5247C171.233 33.6657 171.629 35.0769 171.629 36.7527ZM168.783 35.9785C168.803 35.0937 168.608 34.3293 168.203 33.6839C167.687 32.8537 166.893 32.4393 165.825 32.4393C164.849 32.4393 164.055 32.8439 163.449 33.6559C162.952 34.3013 162.657 35.0755 162.566 35.9771H168.783V35.9785Z" fill="black"/>
<path d="M69.2807 14.0127C69.2807 15.6605 68.7865 16.9009 67.7995 17.7339C66.8853 18.5025 65.5861 18.8875 63.9033 18.8875C63.0689 18.8875 62.3549 18.8511 61.7571 18.7783V9.77487C62.5369 9.64887 63.3769 9.58447 64.2841 9.58447C65.8871 9.58447 67.0953 9.93307 67.9101 10.6303C68.8229 11.4185 69.2807 12.5455 69.2807 14.0127ZM67.7337 14.0533C67.7337 12.9851 67.4509 12.1661 66.8853 11.5949C66.3197 11.0251 65.4937 10.7395 64.4059 10.7395C63.9439 10.7395 63.5505 10.7703 63.2243 10.8347V17.6793C63.4049 17.7073 63.7353 17.7199 64.2155 17.7199C65.3383 17.7199 66.2049 17.4077 66.8153 16.7833C67.4257 16.1589 67.7337 15.2489 67.7337 14.0533Z" fill="black"/>
<path d="M77.4833 15.4519C77.4833 16.4669 77.1935 17.2985 76.6139 17.9509C76.0063 18.6215 75.2013 18.9561 74.1961 18.9561C73.2273 18.9561 72.4559 18.6355 71.8805 17.9915C71.3065 17.3489 71.0195 16.5383 71.0195 15.5611C71.0195 14.5391 71.3149 13.7005 71.9085 13.0495C72.5021 12.3985 73.3001 12.0723 74.3053 12.0723C75.2741 12.0723 76.0525 12.3929 76.6419 13.0355C77.2019 13.6599 77.4833 14.4663 77.4833 15.4519ZM75.9615 15.4995C75.9615 14.8905 75.8299 14.3683 75.5681 13.9329C75.2601 13.4065 74.8219 13.1433 74.2521 13.1433C73.6627 13.1433 73.2147 13.4065 72.9067 13.9329C72.6435 14.3683 72.5133 14.8989 72.5133 15.5261C72.5133 16.1351 72.6449 16.6573 72.9067 17.0927C73.2245 17.6191 73.6669 17.8823 74.2381 17.8823C74.7981 17.8823 75.2377 17.6149 75.5541 17.0787C75.8257 16.6349 75.9615 16.1085 75.9615 15.4995Z" fill="black"/>
<path d="M88.4817 12.2068L86.4167 18.8064H85.0727L84.2173 15.9406C84.0003 15.2252 83.8239 14.514 83.6867 13.8084H83.6601C83.5327 14.5336 83.3563 15.2434 83.1295 15.9406L82.2209 18.8064H80.8615L78.9197 12.2068H80.4275L81.1737 15.3442C81.3543 16.0862 81.5027 16.7932 81.6217 17.4624H81.6483C81.7575 16.9108 81.9381 16.208 82.1929 15.3582L83.1295 12.2082H84.3251L85.2225 15.291C85.4395 16.0428 85.6159 16.7666 85.7517 17.4638H85.7923C85.8917 16.7848 86.0415 16.061 86.2403 15.291L87.0411 12.2082H88.4817V12.2068Z" fill="black"/>
<path d="M96.0879 18.8063H94.6207V15.0263C94.6207 13.8615 94.1783 13.2791 93.2907 13.2791C92.8553 13.2791 92.5039 13.4387 92.2309 13.7593C91.9607 14.0799 91.8235 14.4579 91.8235 14.8905V18.8049H90.3563V14.0925C90.3563 13.5129 90.3381 12.8843 90.3031 12.2039H91.5925L91.6611 13.2357H91.7017C91.8725 12.9151 92.1273 12.6505 92.4619 12.4391C92.8595 12.1927 93.3047 12.0681 93.7919 12.0681C94.4079 12.0681 94.9203 12.2669 95.3277 12.6659C95.8345 13.1545 96.0879 13.8839 96.0879 14.8527V18.8063Z" fill="black"/>
<path d="M100.134 18.8063H98.6681V9.17847H100.134V18.8063Z" fill="black"/>
<path d="M108.772 15.4519C108.772 16.4669 108.482 17.2985 107.903 17.9509C107.295 18.6215 106.489 18.9561 105.485 18.9561C104.515 18.9561 103.743 18.6355 103.169 17.9915C102.595 17.3489 102.308 16.5383 102.308 15.5611C102.308 14.5391 102.604 13.7005 103.197 13.0495C103.791 12.3985 104.589 12.0723 105.593 12.0723C106.563 12.0723 107.34 12.3929 107.931 13.0355C108.491 13.6599 108.772 14.4663 108.772 15.4519ZM107.249 15.4995C107.249 14.8905 107.117 14.3683 106.855 13.9329C106.549 13.4065 106.109 13.1433 105.541 13.1433C104.95 13.1433 104.502 13.4065 104.195 13.9329C103.932 14.3683 103.802 14.8989 103.802 15.5261C103.802 16.1351 103.934 16.6573 104.195 17.0927C104.513 17.6191 104.956 17.8823 105.527 17.8823C106.087 17.8823 106.525 17.6149 106.841 17.0787C107.114 16.6349 107.249 16.1085 107.249 15.4995Z" fill="black"/>
<path d="M115.873 18.8063H114.555L114.446 18.0461H114.406C113.955 18.6523 113.312 18.9561 112.478 18.9561C111.855 18.9561 111.351 18.7559 110.971 18.3583C110.627 17.9971 110.455 17.5477 110.455 17.0143C110.455 16.2079 110.791 15.5933 111.467 15.1677C112.142 14.7421 113.091 14.5335 114.313 14.5433V14.4201C114.313 13.5507 113.857 13.1167 112.943 13.1167C112.292 13.1167 111.718 13.2805 111.222 13.6053L110.924 12.6421C111.537 12.2627 112.294 12.0723 113.188 12.0723C114.912 12.0723 115.778 12.9823 115.778 14.8023V17.2327C115.778 17.8921 115.81 18.4171 115.873 18.8063ZM114.35 16.5383V15.5205C112.731 15.4925 111.922 15.9363 111.922 16.8505C111.922 17.1949 112.014 17.4525 112.203 17.6247C112.392 17.7969 112.633 17.8823 112.92 17.8823C113.242 17.8823 113.543 17.7801 113.818 17.5771C114.093 17.3727 114.263 17.1137 114.326 16.7959C114.341 16.7245 114.35 16.6377 114.35 16.5383Z" fill="black"/>
<path d="M124.21 18.8063H122.908L122.839 17.7465H122.798C122.383 18.5529 121.674 18.9561 120.679 18.9561C119.884 18.9561 119.221 18.6439 118.696 18.0195C118.171 17.3951 117.91 16.5845 117.91 15.5891C117.91 14.5209 118.194 13.6557 118.765 12.9949C119.318 12.3789 119.996 12.0709 120.802 12.0709C121.688 12.0709 122.308 12.3691 122.661 12.9669H122.689V9.17847H124.158V17.0283C124.158 17.6709 124.175 18.2631 124.21 18.8063ZM122.689 16.0231V14.9227C122.689 14.7323 122.675 14.5783 122.649 14.4607C122.566 14.1079 122.388 13.8111 122.118 13.5717C121.845 13.3323 121.516 13.2119 121.137 13.2119C120.589 13.2119 120.161 13.4289 119.846 13.8643C119.534 14.2997 119.375 14.8555 119.375 15.5345C119.375 16.1869 119.525 16.7161 119.826 17.1235C120.144 17.5575 120.572 17.7745 121.109 17.7745C121.59 17.7745 121.975 17.5939 122.268 17.2313C122.551 16.8967 122.689 16.4935 122.689 16.0231Z" fill="black"/>
<path d="M136.758 15.4519C136.758 16.4669 136.468 17.2985 135.888 17.9509C135.281 18.6215 134.477 18.9561 133.471 18.9561C132.503 18.9561 131.732 18.6355 131.155 17.9915C130.581 17.3489 130.294 16.5383 130.294 15.5611C130.294 14.5391 130.589 13.7005 131.183 13.0495C131.777 12.3985 132.575 12.0723 133.581 12.0723C134.549 12.0723 135.328 12.3929 135.916 13.0355C136.476 13.6599 136.758 14.4663 136.758 15.4519ZM135.237 15.4995C135.237 14.8905 135.106 14.3683 134.844 13.9329C134.535 13.4065 134.098 13.1433 133.527 13.1433C132.939 13.1433 132.491 13.4065 132.181 13.9329C131.918 14.3683 131.788 14.8989 131.788 15.5261C131.788 16.1351 131.919 16.6573 132.181 17.0927C132.499 17.6191 132.941 17.8823 133.513 17.8823C134.073 17.8823 134.514 17.6149 134.83 17.0787C135.1 16.6349 135.237 16.1085 135.237 15.4995Z" fill="black"/>
<path d="M144.647 18.8063H143.181V15.0263C143.181 13.8615 142.739 13.2791 141.85 13.2791C141.414 13.2791 141.063 13.4387 140.791 13.7593C140.52 14.0799 140.384 14.4579 140.384 14.8905V18.8049H138.915V14.0925C138.915 13.5129 138.899 12.8843 138.864 12.2039H140.152L140.22 13.2357H140.261C140.433 12.9151 140.688 12.6505 141.021 12.4391C141.42 12.1927 141.864 12.0681 142.352 12.0681C142.967 12.0681 143.479 12.2669 143.887 12.6659C144.395 13.1545 144.647 13.8839 144.647 14.8527V18.8063Z" fill="black"/>
<path d="M154.521 13.3056H152.906V16.5116C152.906 17.3264 153.193 17.7338 153.761 17.7338C154.024 17.7338 154.243 17.7114 154.415 17.6652L154.453 18.7782C154.163 18.8874 153.782 18.942 153.313 18.942C152.733 18.942 152.283 18.7656 151.956 18.4128C151.629 18.06 151.466 17.4664 151.466 16.6334V13.3056H150.502V12.2066H151.466V10.997L152.904 10.563V12.2052H154.52V13.3056H154.521Z" fill="black"/>
<path d="M162.288 18.8063H160.82V15.0543C160.82 13.8713 160.377 13.2791 159.491 13.2791C158.811 13.2791 158.346 13.6221 158.091 14.3081C158.048 14.4523 158.022 14.6287 158.022 14.8359V18.8049H156.557V9.17847H158.022V13.1559H158.05C158.512 12.4321 159.175 12.0709 160.033 12.0709C160.64 12.0709 161.143 12.2697 161.542 12.6687C162.039 13.1657 162.288 13.9049 162.288 14.8821V18.8063Z" fill="black"/>
<path d="M170.301 15.1942C170.301 15.4574 170.281 15.6786 170.246 15.8592H165.846C165.865 16.5116 166.075 17.0086 166.483 17.353C166.855 17.661 167.335 17.815 167.923 17.815C168.574 17.815 169.168 17.7114 169.703 17.5028L169.932 18.522C169.307 18.7936 168.57 18.9294 167.718 18.9294C166.696 18.9294 165.891 18.6284 165.308 18.0264C164.723 17.4244 164.433 16.6166 164.433 15.603C164.433 14.6076 164.703 13.7788 165.248 13.118C165.816 12.4124 166.585 12.0596 167.555 12.0596C168.504 12.0596 169.225 12.4124 169.713 13.118C170.106 13.678 170.301 14.371 170.301 15.1942ZM168.901 14.8148C168.912 14.3794 168.815 14.0042 168.616 13.6878C168.362 13.2804 167.974 13.076 167.449 13.076C166.97 13.076 166.579 13.2748 166.281 13.6738C166.038 13.9916 165.893 14.371 165.846 14.8148H168.901Z" fill="black"/>
</g>
<defs>
<clipPath id="clip0">
<rect width="189" height="56" fill="white" transform="translate(0.610718)"/>
</clipPath>
</defs>
</svg>
