<svg width="191" height="56" viewBox="0 0 191 56" fill="none" xmlns="http://www.w3.org/2000/svg">
<g clip-path="url(#clip0)">
<path fill-rule="evenodd" clip-rule="evenodd" d="M183.358 56H7.64214C3.76683 56 0.610718 52.8439 0.610718 49V7C0.610718 3.14214 3.76683 0 7.64214 0H183.358C187.23 0 190.389 3.14214 190.389 7V49C190.389 52.8439 187.23 56 183.358 56Z" fill="white"/>
<path fill-rule="evenodd" clip-rule="evenodd" d="M183.358 1.1207C186.608 1.1207 189.269 3.76359 189.269 7V49C189.269 52.2364 186.626 54.8793 183.358 54.8793H7.64214C4.39177 54.8793 1.73142 52.2364 1.73142 49V7C1.73142 3.76359 4.37431 1.1207 7.64214 1.1207H183.358ZM183.358 0H7.64214C3.76683 0 0.610718 3.15611 0.610718 7V49C0.610718 52.8579 3.76683 56 7.64214 56H183.358C187.23 56 190.389 52.8579 190.389 49V7C190.389 3.15611 187.23 0 183.358 0Z" fill="#A6A6A6"/>
<path d="M100.587 18.5248C99.3194 18.5248 98.2511 18.0814 97.4062 17.2086C96.5683 16.3602 96.1004 15.1906 96.1214 13.9966C96.1214 12.7223 96.5543 11.6435 97.4062 10.7881C98.2476 9.91532 99.3159 9.47192 100.583 9.47192C101.837 9.47192 102.905 9.91532 103.764 10.7881C104.616 11.6714 105.049 12.7502 105.049 13.9966C105.035 15.2744 104.602 16.3532 103.764 17.2051C102.922 18.0849 101.854 18.5248 100.587 18.5248ZM62.8775 18.5248C61.6381 18.5248 60.5628 18.0884 59.683 17.226C58.8102 16.3672 58.3668 15.2814 58.3668 14.0001C58.3668 12.7188 58.8102 11.633 59.683 10.7742C60.5454 9.91183 61.6207 9.47542 62.8775 9.47542C63.492 9.47542 64.089 9.59761 64.6616 9.84549C65.2237 10.0864 65.681 10.4146 66.0197 10.8161L66.1035 10.9173L65.1573 11.846L65.0596 11.7308C64.5254 11.0954 63.8097 10.7846 62.8636 10.7846C62.0187 10.7846 61.282 11.0849 60.6745 11.6784C60.0636 12.2754 59.7529 13.0575 59.7529 14.0036C59.7529 14.9497 60.0636 15.7318 60.6745 16.3288C61.282 16.9223 62.0187 17.2226 62.8636 17.2226C63.7643 17.2226 64.5219 16.9223 65.1119 16.3288C65.4611 15.9797 65.6775 15.4909 65.7543 14.8729H62.7204V13.5672H67.0566L67.074 13.6859C67.1055 13.9058 67.1369 14.1328 67.1369 14.3423C67.1369 15.5467 66.7738 16.5208 66.0546 17.24C65.2376 18.0919 64.1693 18.5248 62.8775 18.5248ZM113.016 18.3398H111.678L107.583 11.7866L107.618 12.9667V18.3363H106.281V9.66045H107.807L107.849 9.72679L111.699 15.8994L111.664 14.7228V9.66045H113.016V18.3398ZM90.5388 18.3398H89.1842V10.9662H86.8346V9.66045H92.885V10.9662H90.5354V18.3398H90.5388ZM85.7314 18.3398H84.3802V9.66045H85.7314V18.3398ZM78.1379 18.3398H76.7867V10.9662H74.4371V9.66045H80.4875V10.9662H78.1379V18.3398ZM73.5818 18.3258H68.4007V9.66045H73.5818V10.9662H69.7553V13.3472H73.2082V14.639H69.7553V17.0201H73.5818V18.3258ZM98.3977 16.3113C99.0017 16.9153 99.7348 17.2191 100.587 17.2191C101.463 17.2191 102.179 16.9223 102.776 16.3113C103.369 15.7178 103.669 14.9393 103.669 14.0001C103.669 13.061 103.369 12.2789 102.779 11.6889C102.175 11.0849 101.439 10.7812 100.59 10.7812C99.7139 10.7812 98.9982 11.0779 98.4047 11.6889C97.8112 12.2824 97.5109 13.061 97.5109 14.0001C97.5109 14.9393 97.8077 15.7213 98.3977 16.3113Z" fill="black"/>
<path fill-rule="evenodd" clip-rule="evenodd" d="M95.9958 30.4579C92.6966 30.4579 90.0223 32.9612 90.0223 36.414C90.0223 39.8355 92.714 42.3701 95.9958 42.3701C99.2951 42.3701 101.969 39.8494 101.969 36.414C101.969 32.9612 99.2951 30.4579 95.9958 30.4579ZM95.9958 40.01C94.1908 40.01 92.6372 38.5158 92.6372 36.4001C92.6372 34.2529 94.1943 32.7901 95.9958 32.7901C97.8008 32.7901 99.3544 34.2529 99.3544 36.4001C99.3579 38.5297 97.8008 40.01 95.9958 40.01ZM82.9629 30.4579C79.6637 30.4579 76.9893 32.9612 76.9893 36.414C76.9893 39.8355 79.6811 42.3701 82.9629 42.3701C86.2622 42.3701 88.9365 39.8494 88.9365 36.414C88.9365 32.9612 86.2587 30.4579 82.9629 30.4579ZM82.9629 40.01C81.1579 40.01 79.6043 38.5158 79.6043 36.4001C79.6043 34.2529 81.1614 32.7901 82.9629 32.7901C84.7679 32.7901 86.3215 34.2529 86.3215 36.4001C86.3215 38.5297 84.7679 40.01 82.9629 40.01ZM67.4547 32.2769V34.7976H73.5051C73.32 36.2115 72.8522 37.2554 72.1365 37.9711C71.2497 38.8579 69.8811 39.8215 67.4686 39.8215C63.7504 39.8215 60.8422 36.819 60.8422 33.1008C60.8422 29.3826 63.7504 26.3801 67.4686 26.3801C69.4761 26.3801 70.939 27.1726 72.0248 28.1851L73.8123 26.3976C72.3041 24.9522 70.2966 23.8455 67.4826 23.8455C62.3819 23.8455 58.1016 28.0001 58.1016 33.0868C58.1016 38.1876 62.3784 42.3282 67.4826 42.3282C70.2372 42.3282 72.3041 41.4275 73.938 39.7307C75.6033 38.0654 76.1305 35.7158 76.1305 33.82C76.1305 33.23 76.0851 32.6993 75.9908 32.2489H67.4512C67.4547 32.2455 67.4547 32.2769 67.4547 32.2769ZM130.888 34.239C130.388 32.9018 128.88 30.444 125.787 30.444C122.722 30.444 120.173 32.8564 120.173 36.4001C120.173 39.7447 122.694 42.3562 126.084 42.3562C128.807 42.3562 130.392 40.6908 131.045 39.7133L129.023 38.3587C128.353 39.3537 127.421 40.0065 126.098 40.0065C124.76 40.0065 123.825 39.3991 123.203 38.2016L131.167 34.9023C131.167 34.9058 130.888 34.239 130.888 34.239ZM122.767 36.229C122.704 33.9282 124.554 32.7587 125.878 32.7587C126.922 32.7587 127.791 33.2719 128.088 34.019L122.767 36.229ZM116.298 42.0001H118.913V24.5018H116.298V42.0001ZM112.003 31.7811H111.909C111.319 31.0794 110.198 30.444 108.767 30.444C105.796 30.444 103.059 33.0589 103.059 36.4175C103.059 39.7622 105.782 42.3457 108.767 42.3457C110.181 42.3457 111.319 41.7068 111.909 40.9911H112.003V41.8464C112.003 44.1193 110.788 45.3447 108.83 45.3447C107.227 45.3447 106.232 44.1926 105.827 43.229L103.554 44.1786C104.207 45.7497 105.949 47.6943 108.826 47.6943C111.892 47.6943 114.489 45.8893 114.489 41.4868V30.8001H112.017V31.7811C112.021 31.7811 112.003 31.7811 112.003 31.7811ZM109.001 40.01C107.196 40.01 105.688 38.5018 105.688 36.4175C105.688 34.3158 107.196 32.7936 109.001 32.7936C110.788 32.7936 112.174 34.3332 112.174 36.4175C112.192 38.5018 110.792 40.01 109.001 40.01ZM143.132 24.5018H136.879V42.0001H139.494V35.3736H143.135C146.029 35.3736 148.875 33.2754 148.875 29.9447C148.875 26.614 146.04 24.5018 143.132 24.5018ZM143.208 32.9297H139.49V26.9248H143.208C145.167 26.9248 146.274 28.5412 146.274 29.9272C146.274 31.2993 145.153 32.9297 143.208 32.9297ZM159.355 30.4265C157.456 30.4265 155.498 31.2679 154.688 33.1008L157.006 34.0644C157.505 33.1008 158.42 32.7726 159.387 32.7726C160.741 32.7726 162.11 33.5826 162.141 35.028V35.213C161.674 34.9477 160.647 34.5427 159.418 34.5427C156.915 34.5427 154.377 35.9113 154.377 38.4774C154.377 40.827 156.43 42.3352 158.717 42.3352C160.473 42.3352 161.44 41.5427 162.044 40.6245H162.138V41.9791H164.659V35.2759C164.659 32.1547 162.34 30.4265 159.355 30.4265ZM159.027 40.01C158.172 40.01 156.974 39.5911 156.974 38.5158C156.974 37.1612 158.469 36.6479 159.743 36.6479C160.895 36.6479 161.44 36.8958 162.124 37.238C161.936 38.809 160.609 39.9961 159.027 40.01ZM173.855 30.8001L170.852 38.3901H170.758L167.647 30.8001H164.833L169.501 41.41L166.841 47.3068H169.564L176.745 30.8001H173.855ZM150.317 42.0001H152.932V24.5018H150.317V42.0001Z" fill="black"/>
<path fill-rule="evenodd" clip-rule="evenodd" d="M15.2182 10.5471C14.8133 10.9836 14.5793 11.6504 14.5793 12.5232V43.4803C14.5793 44.3531 14.8133 45.02 15.2322 45.4389L15.3404 45.5332L32.6851 28.1885V27.801L15.3265 10.4529L15.2182 10.5471Z" fill="url(#paint0_linear)"/>
<path fill-rule="evenodd" clip-rule="evenodd" d="M38.4561 33.9875L32.671 28.2025V27.7975L38.4561 22.0125L38.5817 22.0893L45.4246 25.9785C47.3832 27.0818 47.3832 28.9042 45.4246 30.0214L38.5817 33.9107L38.4561 33.9875Z" fill="url(#paint1_linear)"/>
<path fill-rule="evenodd" clip-rule="evenodd" d="M38.5817 33.9107L32.671 28L15.2181 45.4529C15.857 46.1372 16.9289 46.214 18.1264 45.5471L38.5817 33.9107Z" fill="url(#paint2_linear)"/>
<path fill-rule="evenodd" clip-rule="evenodd" d="M38.5817 22.0892L18.1264 10.4702C16.9289 9.78593 15.8536 9.8802 15.2181 10.5645L32.671 27.9999L38.5817 22.0892Z" fill="url(#paint3_linear)"/>
<path opacity="0.2" fill-rule="evenodd" clip-rule="evenodd" d="M38.4561 33.7849L18.1404 45.3271C17.0057 45.9799 15.9933 45.9346 15.3404 45.341L15.2322 45.4493L15.3404 45.5435C15.9933 46.1336 17.0057 46.1824 18.1404 45.5296L38.5958 33.9106L38.4561 33.7849Z" fill="black"/>
<path opacity="0.12" fill-rule="evenodd" clip-rule="evenodd" d="M45.4246 29.819L38.4386 33.785L38.5643 33.9107L45.4072 30.0214C46.3882 29.4628 46.87 28.7297 46.87 28C46.8107 28.6703 46.3114 29.3057 45.4246 29.819Z" fill="black"/>
<path opacity="0.25" fill-rule="evenodd" clip-rule="evenodd" d="M18.1265 10.6727L45.4247 26.181C46.3115 26.6802 46.8108 27.3331 46.8876 27.9999C46.8876 27.2702 46.4058 26.5371 45.4247 25.9785L18.1265 10.4702C16.1679 9.34952 14.5793 10.2852 14.5793 12.5231V12.7256C14.5793 10.4842 16.1679 9.56598 18.1265 10.6727Z" fill="black"/>
</g>
<defs>
<linearGradient id="paint0_linear" x1="31.1293" y1="12.1892" x2="3.34618" y2="19.5921" gradientUnits="userSpaceOnUse">
<stop stop-color="#00A0FF"/>
<stop offset="0.00657" stop-color="#00A1FF"/>
<stop offset="0.2601" stop-color="#00BEFF"/>
<stop offset="0.5122" stop-color="#00D2FF"/>
<stop offset="0.7604" stop-color="#00DFFF"/>
<stop offset="1" stop-color="#00E3FF"/>
</linearGradient>
<linearGradient id="paint1_linear" x1="47.9788" y1="28" x2="14.1032" y2="28" gradientUnits="userSpaceOnUse">
<stop stop-color="#FFE000"/>
<stop offset="0.4087" stop-color="#FFBD00"/>
<stop offset="0.7754" stop-color="#FFA500"/>
<stop offset="1" stop-color="#FF9C00"/>
</linearGradient>
<linearGradient id="paint2_linear" x1="35.3677" y1="31.2163" x2="13.0636" y2="68.756" gradientUnits="userSpaceOnUse">
<stop stop-color="#FF3A44"/>
<stop offset="1" stop-color="#C31162"/>
</linearGradient>
<linearGradient id="paint3_linear" x1="10.8233" y1="0.250206" x2="20.7741" y2="17.016" gradientUnits="userSpaceOnUse">
<stop stop-color="#32A071"/>
<stop offset="0.0685" stop-color="#2DA771"/>
<stop offset="0.4762" stop-color="#15CF74"/>
<stop offset="0.8009" stop-color="#06E775"/>
<stop offset="1" stop-color="#00F076"/>
</linearGradient>
<clipPath id="clip0">
<rect width="189.779" height="56" fill="white" transform="translate(0.610718)"/>
</clipPath>
</defs>
</svg>
