<svg width="190" height="56" viewBox="0 0 190 56" fill="none" xmlns="http://www.w3.org/2000/svg">
<g clip-path="url(#clip0)">
<path fill-rule="evenodd" clip-rule="evenodd" d="M182.747 56H7.03142C3.15611 56 0 52.8439 0 49V7C0 3.14214 3.15611 0 7.03142 0H182.747C186.619 0 189.779 3.14214 189.779 7V49C189.779 52.8439 186.619 56 182.747 56Z" fill="black"/>
<path fill-rule="evenodd" clip-rule="evenodd" d="M182.747 1.1207C185.998 1.1207 188.658 3.76359 188.658 7V49C188.658 52.2364 186.015 54.8793 182.747 54.8793H7.03142C3.78105 54.8793 1.1207 52.2364 1.1207 49V7C1.1207 3.76359 3.76359 1.1207 7.03142 1.1207H182.747ZM182.747 0H7.03142C3.15611 0 0 3.15611 0 7V49C0 52.8579 3.15611 56 7.03142 56H182.747C186.619 56 189.779 52.8579 189.779 49V7C189.779 3.15611 186.619 0 182.747 0Z" fill="#A6A6A6"/>
<path d="M99.9761 18.5247C98.7087 18.5247 97.6404 18.0813 96.7955 17.2085C95.9576 16.3601 95.4898 15.1905 95.5107 13.9965C95.5107 12.7222 95.9436 11.6434 96.7955 10.788C97.6369 9.91519 98.7052 9.4718 99.9726 9.4718C101.226 9.4718 102.294 9.91519 103.153 10.788C104.005 11.6713 104.438 12.7501 104.438 13.9965C104.424 15.2743 103.991 16.3531 103.153 17.205C102.312 18.0848 101.243 18.5247 99.9761 18.5247ZM62.2669 18.5247C61.0275 18.5247 59.9522 18.0883 59.0724 17.2259C58.1996 16.3671 57.7562 15.2813 57.7562 14C57.7562 12.7187 58.1996 11.6329 59.0724 10.774C59.9347 9.9117 61.01 9.47529 62.2669 9.47529C62.8813 9.47529 63.4783 9.59749 64.0509 9.84537C64.613 10.0863 65.0704 10.4144 65.409 10.8159L65.4928 10.9172L64.5467 11.8459L64.4489 11.7307C63.9148 11.0952 63.199 10.7845 62.2529 10.7845C61.408 10.7845 60.6714 11.0848 60.0639 11.6783C59.4529 12.2753 59.1422 13.0573 59.1422 14.0035C59.1422 14.9496 59.4529 15.7317 60.0639 16.3287C60.6714 16.9222 61.408 17.2224 62.2529 17.2224C63.1537 17.2224 63.9113 16.9222 64.5013 16.3287C64.8504 15.9795 65.0669 15.4908 65.1437 14.8728H62.1098V13.5671H66.4459L66.4634 13.6858C66.4948 13.9057 66.5262 14.1327 66.5262 14.3421C66.5262 15.5466 66.1631 16.5207 65.4439 17.2399C64.627 18.0918 63.5586 18.5247 62.2669 18.5247ZM112.405 18.3396H111.068L106.973 11.7865L107.007 12.9666V18.3361H105.67V9.66033H107.196L107.238 9.72667L111.089 15.8992L111.054 14.7227V9.66033H112.405V18.3396ZM89.9282 18.3396H88.5736V10.9661H86.224V9.66033H92.2743V10.9661H89.9247V18.3396H89.9282ZM85.1207 18.3396H83.7696V9.66033H85.1207V18.3396ZM77.5272 18.3396H76.1761V10.9661H73.8265V9.66033H79.8768V10.9661H77.5272V18.3396ZM72.9711 18.3257H67.7901V9.66033H72.9711V10.9661H69.1447V13.3471H72.5975V14.6389H69.1447V17.0199H72.9711V18.3257ZM97.787 16.3112C98.391 16.9152 99.1242 17.2189 99.9761 17.2189C100.852 17.2189 101.568 16.9222 102.165 16.3112C102.759 15.7177 103.059 14.9391 103.059 14C103.059 13.0608 102.759 12.2788 102.169 11.6888C101.565 11.0848 100.828 10.781 99.9795 10.781C99.1032 10.781 98.3875 11.0778 97.794 11.6888C97.2005 12.2823 96.9002 13.0608 96.9002 14C96.9002 14.9391 97.197 15.7212 97.787 16.3112Z" fill="white"/>
<path fill-rule="evenodd" clip-rule="evenodd" d="M95.3851 30.4579C92.0858 30.4579 89.4115 32.9611 89.4115 36.414C89.4115 39.8354 92.1033 42.3701 95.3851 42.3701C98.6843 42.3701 101.359 39.8494 101.359 36.414C101.359 32.9611 98.6843 30.4579 95.3851 30.4579ZM95.3851 40.01C93.5801 40.01 92.0264 38.5157 92.0264 36.4C92.0264 34.2529 93.5836 32.79 95.3851 32.79C97.19 32.79 98.7437 34.2529 98.7437 36.4C98.7472 38.5297 97.19 40.01 95.3851 40.01ZM82.3521 30.4579C79.0529 30.4579 76.3786 32.9611 76.3786 36.414C76.3786 39.8354 79.0703 42.3701 82.3521 42.3701C85.6514 42.3701 88.3257 39.8494 88.3257 36.414C88.3257 32.9611 85.6479 30.4579 82.3521 30.4579ZM82.3521 40.01C80.5471 40.01 78.9935 38.5157 78.9935 36.4C78.9935 34.2529 80.5506 32.79 82.3521 32.79C84.1571 32.79 85.7107 34.2529 85.7107 36.4C85.7107 38.5297 84.1571 40.01 82.3521 40.01ZM66.8439 32.2768V34.7975H72.8943C72.7092 36.2115 72.2414 37.2554 71.5257 37.9711C70.6389 38.8579 69.2703 39.8215 66.8579 39.8215C63.1397 39.8215 60.2314 36.819 60.2314 33.1008C60.2314 29.3826 63.1397 26.3801 66.8579 26.3801C68.8654 26.3801 70.3282 27.1726 71.414 28.1851L73.2015 26.3975C71.6933 24.9521 69.6858 23.8454 66.8718 23.8454C61.7711 23.8454 57.4908 28 57.4908 33.0868C57.4908 38.1875 61.7676 42.3282 66.8718 42.3282C69.6264 42.3282 71.6933 41.4274 73.3272 39.7307C74.9925 38.0654 75.5197 35.7157 75.5197 33.82C75.5197 33.2299 75.4743 32.6993 75.3801 32.2489H66.8404C66.8439 32.2454 66.8439 32.2768 66.8439 32.2768ZM130.277 34.2389C129.778 32.9018 128.269 30.4439 125.176 30.4439C122.111 30.4439 119.562 32.8564 119.562 36.4C119.562 39.7446 122.083 42.3561 125.473 42.3561C128.196 42.3561 129.781 40.6908 130.434 39.7132L128.412 38.3586C127.742 39.3536 126.81 40.0065 125.487 40.0065C124.15 40.0065 123.214 39.399 122.593 38.2015L130.556 34.9023C130.556 34.9058 130.277 34.2389 130.277 34.2389ZM122.156 36.2289C122.093 33.9282 123.944 32.7586 125.267 32.7586C126.311 32.7586 127.18 33.2718 127.477 34.019L122.156 36.2289ZM115.687 42H118.302V24.5018H115.687V42ZM111.393 31.7811H111.298C110.708 31.0793 109.588 30.4439 108.156 30.4439C105.185 30.4439 102.448 33.0589 102.448 36.4175C102.448 39.7621 105.171 42.3456 108.156 42.3456C109.57 42.3456 110.708 41.7067 111.298 40.991H111.393V41.8464C111.393 44.1192 110.178 45.3446 108.219 45.3446C106.616 45.3446 105.621 44.1925 105.216 43.2289L102.944 44.1786C103.597 45.7496 105.339 47.6943 108.215 47.6943C111.281 47.6943 113.878 45.8893 113.878 41.4868V30.8H111.407V31.7811C111.41 31.7811 111.393 31.7811 111.393 31.7811ZM108.39 40.01C106.585 40.01 105.077 38.5018 105.077 36.4175C105.077 34.3157 106.585 32.7935 108.39 32.7935C110.178 32.7935 111.564 34.3332 111.564 36.4175C111.581 38.5018 110.181 40.01 108.39 40.01ZM142.521 24.5018H136.268V42H138.883V35.3736H142.524C145.418 35.3736 148.264 33.2753 148.264 29.9447C148.264 26.614 145.429 24.5018 142.521 24.5018ZM142.598 32.9297H138.879V26.9247H142.598C144.556 26.9247 145.663 28.5412 145.663 29.9272C145.663 31.2993 144.542 32.9297 142.598 32.9297ZM158.745 30.4265C156.845 30.4265 154.887 31.2678 154.077 33.1008L156.395 34.0644C156.894 33.1008 157.809 32.7726 158.776 32.7726C160.131 32.7726 161.499 33.5826 161.531 35.0279V35.213C161.063 34.9476 160.036 34.5427 158.808 34.5427C156.304 34.5427 153.766 35.9112 153.766 38.4773C153.766 40.8269 155.819 42.3352 158.106 42.3352C159.862 42.3352 160.829 41.5427 161.433 40.6244H161.527V41.9791H164.048V35.2758C164.048 32.1546 161.73 30.4265 158.745 30.4265ZM158.416 40.01C157.561 40.01 156.364 39.591 156.364 38.5157C156.364 37.1611 157.858 36.6479 159.132 36.6479C160.284 36.6479 160.829 36.8958 161.513 37.2379C161.325 38.809 159.998 39.996 158.416 40.01ZM173.244 30.8L170.241 38.39H170.147L167.036 30.8H164.222L168.89 41.41L166.23 47.3067H168.953L176.135 30.8H173.244ZM149.706 42H152.321V24.5018H149.706V42Z" fill="white"/>
<path fill-rule="evenodd" clip-rule="evenodd" d="M14.6076 10.5471C14.2026 10.9835 13.9687 11.6504 13.9687 12.5232V43.4803C13.9687 44.3531 14.2026 45.0199 14.6215 45.4389L14.7298 45.5331L32.0744 28.1885V27.801L14.7158 10.4529L14.6076 10.5471Z" fill="url(#paint0_linear)"/>
<path fill-rule="evenodd" clip-rule="evenodd" d="M37.8453 33.9875L32.0603 28.2025V27.7975L37.8453 22.0125L37.971 22.0893L44.8139 25.9786C46.7725 27.0818 46.7725 28.9042 44.8139 30.0215L37.971 33.9107L37.8453 33.9875Z" fill="url(#paint1_linear)"/>
<path fill-rule="evenodd" clip-rule="evenodd" d="M37.971 33.9107L32.0603 28L14.6074 45.4529C15.2463 46.1372 16.3181 46.214 17.5157 45.5471L37.971 33.9107Z" fill="url(#paint2_linear)"/>
<path fill-rule="evenodd" clip-rule="evenodd" d="M37.971 22.0893L17.5157 10.4703C16.3181 9.78605 15.2428 9.88032 14.6074 10.5646L32.0603 28L37.971 22.0893Z" fill="url(#paint3_linear)"/>
<path opacity="0.2" fill-rule="evenodd" clip-rule="evenodd" d="M37.8454 33.785L17.5297 45.3272C16.395 45.9801 15.3825 45.9347 14.7297 45.3412L14.6214 45.4494L14.7297 45.5437C15.3825 46.1337 16.395 46.1826 17.5297 45.5297L37.985 33.9107L37.8454 33.785Z" fill="black"/>
<path opacity="0.12" fill-rule="evenodd" clip-rule="evenodd" d="M44.8139 29.819L37.8279 33.785L37.9535 33.9107L44.7964 30.0214C45.7775 29.4628 46.2593 28.7297 46.2593 28C46.1999 28.6703 45.7007 29.3057 44.8139 29.819Z" fill="black"/>
<path opacity="0.25" fill-rule="evenodd" clip-rule="evenodd" d="M17.5158 10.6728L44.8141 26.181C45.7008 26.6803 46.2001 27.3332 46.2769 28C46.2769 27.2703 45.7951 26.5372 44.8141 25.9785L17.5158 10.4703C15.5572 9.34961 13.9687 10.2853 13.9687 12.5232V12.7257C13.9687 10.4843 15.5572 9.56607 17.5158 10.6728Z" fill="white"/>
</g>
<defs>
<linearGradient id="paint0_linear" x1="30.5186" y1="12.1892" x2="2.73549" y2="19.592" gradientUnits="userSpaceOnUse">
<stop stop-color="#00A0FF"/>
<stop offset="0.00657" stop-color="#00A1FF"/>
<stop offset="0.2601" stop-color="#00BEFF"/>
<stop offset="0.5122" stop-color="#00D2FF"/>
<stop offset="0.7604" stop-color="#00DFFF"/>
<stop offset="1" stop-color="#00E3FF"/>
</linearGradient>
<linearGradient id="paint1_linear" x1="47.3681" y1="28.0001" x2="13.4925" y2="28.0001" gradientUnits="userSpaceOnUse">
<stop stop-color="#FFE000"/>
<stop offset="0.4087" stop-color="#FFBD00"/>
<stop offset="0.7754" stop-color="#FFA500"/>
<stop offset="1" stop-color="#FF9C00"/>
</linearGradient>
<linearGradient id="paint2_linear" x1="34.757" y1="31.2163" x2="12.4528" y2="68.756" gradientUnits="userSpaceOnUse">
<stop stop-color="#FF3A44"/>
<stop offset="1" stop-color="#C31162"/>
</linearGradient>
<linearGradient id="paint3_linear" x1="10.2126" y1="0.250328" x2="20.1634" y2="17.0162" gradientUnits="userSpaceOnUse">
<stop stop-color="#32A071"/>
<stop offset="0.0685" stop-color="#2DA771"/>
<stop offset="0.4762" stop-color="#15CF74"/>
<stop offset="0.8009" stop-color="#06E775"/>
<stop offset="1" stop-color="#00F076"/>
</linearGradient>
<clipPath id="clip0">
<rect width="189.779" height="56" fill="white"/>
</clipPath>
</defs>
</svg>
