<svg width="187" height="48" viewBox="0 0 187 48" fill="none" xmlns="http://www.w3.org/2000/svg">
<g clip-path="url(#clip0)">
<path d="M68.324 26.8511V11.4813H71.4902L76.7518 23.4902H75.4147L80.6558 11.4813H83.8015V26.8511H80.2664V17.6292L81.0861 17.8649L77.3615 26.8511H74.7999L71.0035 17.8597L71.8693 17.6241V26.846L68.324 26.8511Z" fill="#BB1D1A"/>
<path d="M88.8018 26.8511H84.7493L91.9219 11.4813H95.1137L102.317 26.8511H98.326L93.1361 14.755H94.0224L88.8018 26.8511ZM88.0691 23.6798L89.6574 20.6417H97.1835L98.7205 23.6798H88.0691Z" fill="#BB1D1A"/>
<path d="M103.203 26.8511V11.4813H106.159L113.788 21.0054L113.122 21.5178V11.5018H116.939V26.8716H113.942L106.375 17.3884L106.979 16.8248V26.8511H103.203Z" fill="#BB1D1A"/>
<path d="M126.463 27.0458C124.222 27.0458 122.527 26.4822 121.376 25.3551C120.225 24.228 119.651 22.5715 119.654 20.3855V11.5018H123.599V20.5341C123.534 21.4476 123.794 22.3546 124.332 23.0958C124.594 23.3987 124.923 23.6368 125.293 23.7915C125.663 23.9461 126.063 24.0131 126.463 23.9872C126.861 24.0053 127.257 23.9305 127.621 23.7686C127.985 23.6067 128.306 23.3623 128.558 23.0548C129.094 22.3124 129.353 21.4063 129.291 20.4931V11.5018H133.277V20.3855C133.277 22.5373 132.691 24.1853 131.52 25.3295C130.348 26.4737 128.663 27.0458 126.463 27.0458Z" fill="#BB1D1A"/>
<path d="M138.001 26.8511H133.948L141.121 11.4813H144.313L151.511 26.8511H147.55L142.335 14.755H143.216L138.001 26.8511ZM137.268 23.6798L138.841 20.6417H146.367L147.904 23.6798H137.268Z" fill="#BB1D1A"/>
<path d="M152.402 26.8511V11.4813H156.455V23.5671H162.946V26.8409L152.402 26.8511Z" fill="#BB1D1A"/>
<path d="M72.7506 45.4076H68.6981L75.8706 30.0378H79.0625L86.235 45.4076H82.244L77.0644 33.3013H77.9507L72.7506 45.4076ZM72.0179 42.2414L73.5959 39.1982H81.1169L82.6539 42.2414H72.0179Z" fill="black"/>
<path d="M92.4598 45.5972C91.6936 45.5976 90.9288 45.529 90.1748 45.3922C89.4429 45.2662 88.7243 45.0724 88.0282 44.8133C87.4203 44.5922 86.8448 44.2907 86.317 43.9167L87.5876 41.0477C88.3223 41.5317 89.1253 41.9029 89.9699 42.1492C90.7919 42.3907 91.6441 42.5132 92.5008 42.513C93.1863 42.5525 93.8713 42.4277 94.4989 42.1492C94.6954 42.0663 94.8638 41.9284 94.9838 41.7521C95.1037 41.5758 95.1702 41.3685 95.1752 41.1553C95.1756 40.9159 95.0923 40.6839 94.9395 40.4995C94.6911 40.2579 94.3865 40.0819 94.0532 39.9872C93.456 39.7624 92.843 39.5826 92.219 39.4492C91.2794 39.2822 90.358 39.0249 89.4678 38.6807C88.8429 38.4463 88.2663 38.099 87.7669 37.6561C87.3701 37.31 87.0671 36.8695 86.8857 36.3753C86.7152 35.8617 86.632 35.3231 86.6398 34.7819C86.634 33.884 86.9119 33.0073 87.4339 32.2767C88.0057 31.5012 88.7729 30.8912 89.6574 30.5091C90.705 30.0587 91.8372 29.8385 92.9773 29.8636C93.7078 29.865 94.4367 29.9336 95.1547 30.0685C95.8368 30.1963 96.5045 30.3919 97.1476 30.6526C97.695 30.8647 98.2025 31.1678 98.6488 31.5491L97.3987 34.4131C96.7388 33.9375 96.0119 33.5628 95.2418 33.3013C94.5242 33.0643 93.7739 32.9416 93.0183 32.9376C92.4012 32.9078 91.7884 33.0534 91.2507 33.3577C91.0478 33.4687 90.8788 33.6326 90.7615 33.8319C90.6443 34.0312 90.5832 34.2586 90.5847 34.4899C90.5847 34.7182 90.6644 34.9393 90.8101 35.1149C91.0546 35.3565 91.3559 35.5327 91.6862 35.6273C92.3253 35.8454 92.9794 36.0167 93.6433 36.1396C94.555 36.3102 95.4474 36.571 96.3074 36.9183C96.9229 37.1596 97.4915 37.5064 97.9878 37.943C98.3871 38.3013 98.693 38.7515 98.8793 39.2546C99.0537 39.748 99.1403 40.2682 99.1355 40.7915C99.1574 41.7061 98.8864 42.6037 98.3619 43.3532C97.7862 44.1155 96.9985 44.6911 96.0974 45.008C94.9322 45.4294 93.6985 45.6292 92.4598 45.5972Z" fill="black"/>
<path d="M106.948 45.5972C106.182 45.5978 105.417 45.5293 104.663 45.3922C103.931 45.2669 103.213 45.0731 102.517 44.8133C101.909 44.5922 101.333 44.2906 100.806 43.9167L102.076 41.0477C102.811 41.5317 103.614 41.9029 104.459 42.1492C105.28 42.3907 106.133 42.5132 106.989 42.513C107.673 42.553 108.357 42.4283 108.982 42.1492C109.18 42.0671 109.349 41.9295 109.47 41.7531C109.591 41.5767 109.658 41.3691 109.664 41.1553C109.664 40.9159 109.581 40.6839 109.428 40.4995C109.179 40.2591 108.875 40.0832 108.542 39.9872C107.937 39.7705 107.317 39.5992 106.687 39.4749C105.749 39.3079 104.83 39.0505 103.941 38.7064C103.315 38.4706 102.737 38.1235 102.235 37.6817C101.843 37.3251 101.547 36.8759 101.374 36.3753C101.204 35.8617 101.121 35.3231 101.128 34.7819C101.12 33.8837 101.398 33.0061 101.923 32.2766C102.493 31.4982 103.26 30.8863 104.146 30.504C105.194 30.0535 106.326 29.8334 107.466 29.8585C108.196 29.8601 108.925 29.9287 109.643 30.0634C110.325 30.1911 110.993 30.3868 111.636 30.6474C112.184 30.8595 112.691 31.1627 113.137 31.544L111.882 34.4079C111.224 33.9359 110.498 33.5647 109.73 33.3064C109.013 33.0699 108.262 32.9471 107.507 32.9427C106.89 32.9129 106.277 33.0585 105.739 33.3628C105.536 33.4738 105.367 33.6377 105.25 33.837C105.133 34.0364 105.072 34.2638 105.073 34.495C105.071 34.7238 105.151 34.9458 105.299 35.1201C105.542 35.3609 105.841 35.537 106.17 35.6324C106.811 35.8497 107.466 36.021 108.132 36.1447C109.044 36.3153 109.936 36.5762 110.796 36.9235C111.411 37.1647 111.98 37.5115 112.476 37.9481C112.865 38.2953 113.164 38.7312 113.347 39.2187C113.526 39.7112 113.614 40.2318 113.609 40.7557C113.628 41.6699 113.357 42.5667 112.835 43.3173C112.258 44.0783 111.471 44.6536 110.571 44.9721C109.412 45.4034 108.184 45.6154 106.948 45.5972Z" fill="black"/>
<path d="M115.873 45.4076V30.0378H126.827V33.1425H119.818V36.032H126.371V39.1367H119.818V42.2824H126.827V45.3871L115.873 45.4076Z" fill="black"/>
<path d="M128.958 45.4076V30.0378H132.129L137.391 42.0467H136.054L141.29 30.0378H144.441V45.4076H140.89V36.1857L141.71 36.4214L137.97 45.4076H135.408L131.617 36.4163L132.478 36.1806V45.4025L128.958 45.4076Z" fill="black"/>
<path d="M147.264 45.4076V30.0378H154.723C156.082 29.9692 157.426 30.3471 158.55 31.1137C159.008 31.4458 159.378 31.8852 159.628 32.3934C159.877 32.9016 159.998 33.4631 159.98 34.0288C159.993 34.8147 159.748 35.5833 159.283 36.2164C158.783 36.8633 158.078 37.3219 157.285 37.5178V37.3487C158.189 37.5274 159.007 38.0057 159.606 38.7064C160.158 39.4121 160.443 40.2904 160.41 41.186C160.426 41.7752 160.301 42.3596 160.044 42.8901C159.787 43.4206 159.407 43.8816 158.934 44.2344C157.763 45.0595 156.348 45.4656 154.918 45.3871L147.264 45.4076ZM151.208 36.073H154.031C154.599 36.115 155.168 35.996 155.671 35.7297C155.844 35.6059 155.982 35.4393 156.072 35.2463C156.162 35.0533 156.2 34.8404 156.183 34.6282C156.203 34.4084 156.166 34.1873 156.076 33.9856C155.986 33.784 155.847 33.6084 155.671 33.4755C155.172 33.2051 154.607 33.0825 154.042 33.122H151.219L151.208 36.073ZM151.208 42.349H154.441C155.022 42.3971 155.605 42.2685 156.111 41.9801C156.292 41.8336 156.433 41.6446 156.523 41.43C156.612 41.2154 156.647 40.9819 156.624 40.7505C156.644 40.5179 156.608 40.2839 156.519 40.0681C156.43 39.8523 156.29 39.6611 156.111 39.5107C155.603 39.2154 155.016 39.0847 154.431 39.1367H151.198L151.208 42.349Z" fill="black"/>
<path d="M162.408 45.4076V30.0378H166.46V42.1338H172.947V45.4076H162.408Z" fill="black"/>
<path d="M175.805 45.4076V38.5117L176.646 40.7506L169.36 30.0583H173.93L178.326 37.0003H177.301L181.764 30.0583H186.375L179.059 40.7506L179.878 38.5117V45.4076H175.805Z" fill="black"/>
<path d="M70.8601 8.00255V2.24398H68.6776V0.707001H74.9894V2.24398H72.812V8.00255H70.8601Z" fill="black"/>
<path d="M75.7733 8.00256V0.681396H77.6638V8.00256H75.7733ZM76.3369 5.04131V3.52994H81.7676V5.06692L76.3369 5.04131ZM80.6251 8.00256V0.681396H82.5155V8.00256H80.6251Z" fill="black"/>
<path d="M83.8322 8.00256V0.681396H89.0528V2.16202H85.7125V3.54019H88.8377V5.02081H85.7125V6.52193H89.0528V8.00256H83.8322Z" fill="black"/>
<path d="M50.4335 24.0436C50.4602 22.0772 50.0963 20.125 49.3628 18.3004C50.4848 19.9757 51.2072 22.5732 51.2072 25.4729C51.2549 27.7406 50.7558 29.9865 49.7522 32.0205C51.7195 30.8678 53.154 27.3839 53.154 23.2699C53.1783 21.3037 52.8144 19.3521 52.0832 17.5267C53.2052 19.2021 53.9276 21.7944 53.9276 24.6993C53.9276 28.511 52.698 31.7797 50.951 33.1579C53.5485 33.0144 55.6388 28.9824 55.6388 24.0128C55.6655 22.0464 55.3015 20.0943 54.568 18.2696C55.69 19.9449 56.4124 22.5424 56.4124 25.4422C56.4124 29.4896 55.024 32.9222 53.1028 34.1518C56.0179 34.0391 58.3644 29.5408 58.3644 23.9718C58.3644 18.4028 55.9616 13.8329 52.9952 13.8329C50.0288 13.8329 47.6465 18.3721 47.6465 23.9974C47.6122 26.2854 48.0608 28.5549 48.9632 30.6577C49.9844 28.6056 50.4892 26.3351 50.4335 24.0436Z" fill="#BB1D1A"/>
<path d="M55.0496 48L45.7868 40.9094C44.4464 39.8851 43.3581 38.5677 42.605 37.0581C41.852 35.5485 41.4543 33.8867 41.4422 32.1998V30.8575V17.1271V15.7848C41.4539 14.0978 41.8515 12.4359 42.6045 10.9262C43.3576 9.4166 44.4461 8.09931 45.7868 7.07525L55.0496 0H40.1921L26.5745 10.3132V37.6868L40.1973 48H55.0496Z" fill="#BB1D1A"/>
<path d="M9.73423 10.7999C9.30369 11.0271 8.95719 11.3862 8.74544 11.8245C8.47892 12.3482 8.26607 12.8975 8.11015 13.464C7.78185 14.5903 7.54709 15.7418 7.40827 16.9068C7.09916 19.2541 6.94854 21.6196 6.95742 23.9872C6.94922 26.3563 7.09813 28.7233 7.40314 31.0727C7.55238 32.2448 7.79566 33.4029 8.13065 34.536C8.28506 35.103 8.49797 35.6525 8.76593 36.1755C8.97945 36.6126 9.32548 36.9712 9.75473 37.2001C11.4966 36.4368 12.8287 30.8216 12.8287 23.9974C12.8287 17.1732 11.4966 11.5632 9.73423 10.7999Z" fill="#BB1D1A"/>
<path d="M8.57637 36.3035C8.24634 35.7912 7.96831 35.2471 7.7464 34.6795C7.3232 33.5463 6.99754 32.3791 6.77297 31.1905C5.89865 26.4367 5.89865 21.5633 6.77297 16.8095C6.99845 15.6216 7.32234 14.4546 7.74127 13.3205C7.96395 12.7539 8.24376 12.2115 8.57637 11.7016C8.83653 11.2843 9.21699 10.9556 9.66763 10.7589C9.56592 10.7208 9.45855 10.7 9.34998 10.6974H3.48895C1.64457 10.7025 0.138329 16.1076 0 22.9676L4.19596 23.9052L0 24.9555C0.128082 31.8514 1.63945 37.2923 3.48895 37.2923H9.34998C9.45803 37.289 9.56503 37.27 9.66763 37.236C9.2184 37.0419 8.8381 36.717 8.57637 36.3035Z" fill="#BB1D1A"/>
<path d="M15.0112 15.7285C14.0788 16.0871 13.1976 17.4191 13.1976 17.4191L13.8277 17.5011C14.0687 16.821 14.4755 16.2118 15.0112 15.7285Z" fill="#BB1D1A"/>
<path d="M18.6436 15.7285C17.7112 16.0871 16.83 17.4191 16.83 17.4191L17.4601 17.5011C17.7011 16.821 18.1079 16.2118 18.6436 15.7285Z" fill="#BB1D1A"/>
<path d="M22.276 15.7285C21.3487 16.082 20.4931 17.4191 20.4931 17.4191L21.1233 17.5011C21.3537 16.8234 21.75 16.214 22.276 15.7285Z" fill="#BB1D1A"/>
<path d="M25.9084 15.7285C24.9811 16.082 24.0794 17.4191 24.0794 17.4191L24.7096 17.5011C24.9532 16.8185 25.3656 16.2087 25.9084 15.7285Z" fill="#BB1D1A"/>
<path d="M29.5408 15.7285C28.6135 16.0871 27.7323 17.4191 27.7323 17.4191L28.3573 17.5011C28.5968 16.8202 29.0038 16.2106 29.5408 15.7285Z" fill="#BB1D1A"/>
<path d="M32.1127 16.5636H31.1239C29.5511 16.6712 28.2907 19.6836 28.2907 23.3929C28.2523 25.0993 28.5627 26.7956 29.2027 28.3778C28.2241 27.2763 27.5427 24.9299 27.5427 22.2299C27.5427 19.8835 28.0551 17.8136 28.8133 16.5943H27.4813C25.9084 16.7019 24.6481 19.7144 24.6481 23.4236C24.6129 25.1307 24.9268 26.827 25.5703 28.4086C24.5917 27.3071 23.9103 24.9606 23.9103 22.2607C23.9103 19.9142 24.4227 17.8444 25.1809 16.625H23.8489C22.2811 16.7326 21.0208 19.7451 21.0208 23.4544C20.9832 25.1617 21.2971 26.8585 21.943 28.4393C20.9593 27.3378 20.2779 24.9914 20.2779 22.2914C20.2779 19.9449 20.7903 17.8751 21.5536 16.6558H20.2216C18.659 16.6712 17.4191 19.6836 17.4191 23.3929C17.3815 25.1002 17.6954 26.797 18.3413 28.3778C17.3577 27.2763 16.6814 24.9299 16.6814 22.2299C16.6814 19.8835 17.1937 17.8136 17.952 16.5943H16.5994C15.0266 16.7019 13.7662 19.7144 13.7662 23.4236C13.7286 25.1309 14.0425 26.8277 14.6884 28.4086C13.7048 27.3071 13.0285 24.9606 13.0285 22.2607C13.0285 19.9142 13.5408 17.8444 14.2991 16.625H10.9894V31.4826H31.0676L32.2049 22.1479V31.4364H33.6856V16.5789L32.1127 16.5636Z" fill="#BB1D1A"/>
</g>
<defs>
<clipPath id="clip0">
<rect width="186.37" height="48" fill="white"/>
</clipPath>
</defs>
</svg>
